# xmcd CD database file generated by Grip 3.2.0
# 
# Track frame offsets:
#       150
#       40575
#       72674
#       104839
#       133492
#       156646
#       188546
#       225408
# 
# Disc length: 3405 seconds
# 
# Revision: 1
# Processed by: cddbd v1.5.2PL0 Copyright (c) Steve Scherf et al.
# Submitted via: Grip 3.2.0
# 
DISCID=740d4b08
DTITLE=Michelle Gregoire - Reaching
DYEAR=2004
DGENRE=Jazz
TTITLE0=Minor Alterations
TTITLE1=December 1st
TTITLE2=Blues For Us
TTITLE3=Knock It
TTITLE4=Miles Away
TTITLE5=Joe's Tune
TTITLE6=Lost and Found
TTITLE7=Reaching
EXTD=YEAR: 2004
EXTT0=
EXTT1=
EXTT2=
EXTT3=
EXTT4=
EXTT5=
EXTT6=
EXTT7=
PLAYORDER=
